<?xml version="1.0" encoding="UTF-8"?>
<!DOCTYPE svg PUBLIC "-//W3C//DTD SVG 1.1//EN" "http://www.w3.org/Graphics/SVG/1.1/DTD/svg11.dtd">
<!-- Creator: CorelDRAW 2021 (64-Bit) -->
<svg xmlns="http://www.w3.org/2000/svg" xml:space="preserve" width="8.5in" height="11in" version="1.1" style="shape-rendering:geometricPrecision; text-rendering:geometricPrecision; image-rendering:optimizeQuality; fill-rule:evenodd; clip-rule:evenodd"
viewBox="0 0 8500 11000"
 xmlns:xlink="http://www.w3.org/1999/xlink"
 xmlns:xodm="http://www.corel.com/coreldraw/odm/2003">
 <defs>
  <style type="text/css">
   <![CDATA[
    .fil0 {fill:#1A1A1A}
   ]]>
  </style>
 </defs>
 <g id="Layer_x0020_1">
  <metadata id="CorelCorpID_0Corel-Layer"/>
  <path class="fil0" d="M1405.59 4561.33c52.19,-18.81 1628.11,-21.05 1770.18,-6.09 22.07,371.43 1.57,799.57 2.79,1177.7 0.81,249.39 -87.04,261.95 -320.13,261.87 -192.4,-0.06 -384.8,-0.02 -577.2,-0.06 -196.89,-0.04 -393.86,-0.27 -590.75,0.24 -238.46,0.63 -288.71,-33.57 -288.33,-275.51 0.29,-183.19 -9.96,-1054.18 3.45,-1158.14zm1718.41 1597.84c392.98,-133.67 172.91,-703.71 250.47,-957.32 118.1,-7.85 691.35,-19.47 762.04,6.1 56.48,230.31 -82.31,645.09 100.29,851 174.74,197.05 543.58,103.81 842.14,124.83 39.82,140.4 -28.66,1877.61 22.22,1991.09 50.28,112.14 292.07,74.58 428.42,74.44l1512.9 -0.66c52.98,183.84 -46.48,562.43 51.15,738.87 115.7,209.09 314.36,194.52 597.06,195.3 263.94,0.74 528,-0.26 791.96,-0.17 276.7,0.1 487.28,40.91 643.48,-148.46 113.6,-137.72 74.46,-519.92 74.44,-724.26 -0.02,-263.98 -0.3,-527.98 -0.11,-791.96 0.2,-285.59 9.25,-481.22 -205.87,-592.58 -136.19,-70.5 -575.44,-42.34 -752.72,-41.45 -15.96,-74.7 -16.56,-641.74 4.93,-701.48 187.15,-3.06 623.47,33.11 759.93,-46.32 220.76,-128.48 194.21,-314.94 194.26,-618.2 0.04,-268.46 -0.06,-536.92 -0.04,-805.38 0.02,-246.59 40.61,-556.47 -97.46,-714.82 -131.63,-150.97 -450.6,-113.47 -687.96,-113.47 -268.46,0 -536.92,-0.1 -805.38,0.01 -193.86,0.07 -450.31,-22.78 -542.83,259.15 -51.86,158.01 10.63,594.28 -21.64,795.15l-749.7 1.66c-45.62,-261.14 71.91,-727.63 -81.5,-912.57 -204.91,-247.02 -530.78,-95.56 -859.39,-147.45l-6.49 -690.21c77.52,-26.98 424.69,-9.46 530.54,-9.39 179.08,0.11 290.89,-68.73 358.77,-175.66 95.22,-149.98 52.93,-797.57 52.78,-1017.26 -0.11,-178.96 -0.41,-357.98 0.07,-536.93 0.48,-180.94 6.6,-323.81 -88.93,-444.11 -82.22,-103.54 -240.68,-125.01 -417.21,-124.47l-1087.26 0.04c-202.42,-0.09 -309.98,-15.57 -438.27,103.29 -118.6,109.88 -116.7,228.03 -117.18,424.97 -0.77,319.46 -35.63,1428.3 47.56,1581.64 150.8,277.93 518.04,170.05 895.63,189.47l1.68 700.7c-291.48,22.39 -706.62,-72.54 -859.05,132.48 -157.55,211.89 -63.87,630.14 -88.93,918.08 -69.48,18.7 -666.96,12.95 -769.75,5.09 -29.81,-207.3 32.28,-606.76 -19.54,-783.63 -84.85,-289.64 -337.72,-269.83 -531.37,-270.3 -268.43,-0.66 -536.94,-0.13 -805.38,-0.1 -243.95,0.03 -549.99,-39.97 -694.52,107.21 -143.77,146.41 -103.41,469.04 -103.43,708.02 -0.02,268.46 0.14,536.92 0.17,805.38 0.04,287.97 -30.61,506.39 184.23,627 158.81,89.16 547.47,41.63 753.82,51.63l6.33 698.59c-358.52,28.13 -725.92,-94.32 -892.58,185.86 -88.91,149.46 -52.1,1245.62 -52.22,1564.49 -0.07,205.66 -16.13,306.31 107.15,436.03 119.29,125.53 220.3,114.6 422.58,114.48l1087.26 0.23c444.81,-0.27 533.51,-120.44 533.4,-537.32 -0.07,-307.22 32.12,-1434.35 -46.94,-1573.69 -135.82,-239.36 -443.77,-189.9 -755.04,-188.45l-125.5 -7.63c-40.88,-10.27 -17.3,-662.48 -8.54,-686.31 101.92,-40.91 531.8,25.26 695.04,-30.27zm-1715.27 1399.73c92.24,-19.28 1666.02,-19.9 1768.74,-0.78 6.59,387.97 -1.72,779.49 0.51,1168.07 1.43,250.71 -63.45,271.58 -306.14,270.61l-1167.81 -0.03c-250.24,0.77 -301.18,-34.87 -301.62,-284.04 -0.35,-197.83 -26.22,-1026.23 6.32,-1153.82zm2918.89 -1839.59c0.65,-194.1 -10.59,-1051.36 5.43,-1167.07l1767.3 5.26c21.54,124.16 4.94,440.27 4.85,584.6 -0.52,739.56 79.15,855.15 -307.12,852.76l-1167.9 -0.03c-242.75,1.01 -303.41,-22.41 -302.56,-275.52zm1079.38 461.35c296.29,-6.03 639.79,70.04 804.93,-141.36 152.63,-195.37 32.87,-647.85 88.15,-838.98l743.47 -0.31c63.93,276.68 -82.99,622.53 96.24,855.48 140.35,182.41 558.07,126.79 828.41,126.09 18.2,65.05 19.33,636.96 1.42,700.97 -329.14,7.7 -706.28,-68.42 -856.16,165.88 -126.67,198.02 -29.54,672.66 -66.75,937.67l-1662.93 -2.12c-28.56,-5.5 -15.74,-1.6 -31.76,-11.76 -15.95,-98.87 -3.22,-337.89 -3.24,-454.25 -0.02,-156.6 0.1,-313.21 0.01,-469.81l0.06 -711.49c-0.17,-101.78 -31.46,-154.19 58.15,-156.02zm1830.28 1377.56l1768.87 -6.8c32.1,128.12 6.08,966.39 6.31,1161.28 0.29,236.96 -45.88,286.83 -288.18,284.65l-1167.82 -0.34c-244.39,-0.28 -319.4,-15.24 -319.71,-270.81 -0.48,-385.19 -9.8,-784.46 0.52,-1167.98zm-0.55 -1838.8c1.14,-188.73 -10.79,-1058.13 3.54,-1162.5 218.91,-29.57 651.51,-4.33 893.39,-4.33 55.82,0 826.95,-17.24 875.7,15.02 20.07,114 3.64,435.85 3.62,574.49 -0.06,784.31 74.79,852.9 -315.52,852.73l-1167.91 0.11c-233.11,0.48 -294.25,-36.3 -292.81,-275.52zm-2909.22 -3006.89c0.21,-176.41 -11.57,-1058.48 6.16,-1154.38 40.98,-13.07 1650.19,-19.11 1764.22,-4.55 31.22,111.57 6.36,969.6 7.44,1158.99 1.45,256.72 -58.21,280.66 -307.27,281.19l-1167.83 0.11c-241.17,0.31 -303.02,-32.71 -302.72,-281.36z"/>
 </g>
</svg>
