<?xml version="1.0" encoding="UTF-8"?>
<!DOCTYPE svg PUBLIC "-//W3C//DTD SVG 1.1//EN" "http://www.w3.org/Graphics/SVG/1.1/DTD/svg11.dtd">
<!-- Creator: CorelDRAW 2021 (64-Bit) -->
<svg xmlns="http://www.w3.org/2000/svg" xml:space="preserve" width="8.5in" height="11in" version="1.1" style="shape-rendering:geometricPrecision; text-rendering:geometricPrecision; image-rendering:optimizeQuality; fill-rule:evenodd; clip-rule:evenodd"
viewBox="0 0 8500 11000"
 xmlns:xlink="http://www.w3.org/1999/xlink"
 xmlns:xodm="http://www.corel.com/coreldraw/odm/2003">
 <defs>
  <style type="text/css">
   <![CDATA[
    .str0 {stroke:#1A1A1A;stroke-width:6.94;stroke-linecap:round;stroke-linejoin:round;stroke-miterlimit:2.61313}
    .fil0 {fill:black}
   ]]>
  </style>
 </defs>
 <g id="Layer_x0020_1">
  <metadata id="CorelCorpID_0Corel-Layer"/>
  <g id="_2835463433568">
   <path class="fil0 str0" d="M6946.8 7480.84c-417.97,70.31 -1152.92,22.81 -1607.01,22.76 -643.03,-0.09 -998.17,136 -1302.53,-266 797.73,-65.06 545.11,69.23 633.56,-179.98 -281.04,-401.47 -850.65,202.11 -1189.37,-415.89l3510.31 14.17c-331.8,185.95 -315.31,533.57 -44.95,824.94zm43.08 -1136.84l-3767.96 3.85 35.23 -873.76 3742.52 4.93 -9.79 864.98zm-3759.98 545.97c348.8,412.55 1552.68,1474.4 2028.52,1809.47 215.06,151.43 595.89,379.38 770.91,542.86 -421.02,266 -1274.49,166.04 -1799.13,45.07 62.71,-1370.3 -1657.3,-1057.22 -1438.13,-0.28 78.83,380.2 502.07,689.43 975.11,506.62 315.22,-121.83 175.74,-243.05 518.71,-190.65 974.87,148.93 1019.55,127.04 1961.38,-83.21 353.94,-79.02 682.47,184.19 1014.8,298.1 372.05,127.54 769.31,122.28 1023.03,288.17 319.11,208.66 628.03,268.91 960.06,-15.8 289.39,-248.17 316.25,-644.85 88.08,-971.51 -175.11,-250.7 -122.54,-136.55 -173.85,-512.58 -88.31,-647.18 -511.85,-1215.49 -452.07,-1489.1 200,-915.5 350.03,-1674.14 -104.17,-2696.02 -90.22,-202.98 -212.16,-406.61 -308.49,-565 -148.88,-244.8 -198.44,-422.98 -530.63,-435.38 -10.57,432.83 915.23,1149.56 841.02,2513.32l-98.14 899.68c-135.07,-93.58 -30.5,-0.12 -133.62,-110.91 -300.89,-323.28 -368.3,-827.38 -769.93,-775.46 -53.59,807.23 1694.72,1022.64 -266.94,2668.51 -139.82,117.31 -499.68,357.79 -694.17,437.34 -422.21,172.67 -1740.49,-999 -1987.56,-1234.48l2586.19 -15.37c60.11,-127.72 40.31,-182.9 111.44,-297.65 72.6,-117.13 161.64,-133.3 212.85,-290.01 109.27,-334.38 -117.47,-438.47 -260.45,-595.04l-0.14 -2184.69c1.54,-327.98 66.26,-381.43 -216.06,-427.92 -984.34,-162.03 -532.05,381.45 -1492.83,-390.73 -250.98,-201.72 -406.8,-349.98 -693.39,-553.83 -239.11,-170.09 -494.15,-275.24 -725.25,-490.83 497.33,-262.64 1622.38,-182.61 2134.17,74.92 -262.99,1271.02 1709.35,1167.78 1418.37,25.74 -120.03,-471.07 -616.85,-706.06 -1130.96,-408.61 -343.62,198.84 -401.19,-135.44 -1570.98,-135.44 -500.35,0 -692.77,99.48 -1116.35,192.16 -245.78,53.79 -617.62,-196.93 -902.81,-300.33 -313.35,-113.61 -799.83,-122.06 -1033.81,-271.63 -230.73,-147.49 -624.09,-402.92 -1005.15,3.27 -515.7,549.76 9.61,845.08 94.39,1406.06 31.81,210.57 63.94,367.17 126.41,556.8 93.03,282.5 358.09,710.44 333.28,956.95 -40.04,397.87 -193.38,654 -193.38,1199.07 0,1254.41 858.11,2884.61 1339.65,2773.08 159.82,-337.4 -190.87,-244.51 -654.18,-1133.04 -519.61,-996.56 -403.75,-1529.69 -275.44,-2548.89l855.78 1155.63c196.43,242.11 321.78,278.76 330.93,684.26 11.54,510.77 -132.19,887.05 184.19,982.44 192.4,58.03 521.5,27.95 686.46,-17.9 -44.4,-376.73 -157.35,-243.33 -573.96,-269.44l6.24 -607.8zm-285.72 -2848.7l-32.65 1956.43c-155.05,-125.76 -925.35,-1147.96 -970.34,-1399.34 -36.33,-202.94 253.01,-601.6 363.62,-763.1 236.44,-345.26 833.41,-866.3 1256.19,-1059.5 433.33,-198.02 1895.4,1088.43 1999.88,1210.4 -273.61,49.02 -284.29,-50.29 -445.26,137.73 117.98,367.85 1048.09,114.82 1889.8,204.21l-7.84 849.57 -3777.61 1.71 -0.72 -866.22c311.5,-0.28 623.68,-3.16 935.13,0 378.07,3.83 591.42,97.89 672.29,-201.77 -164.82,-167.3 -1598.23,-122.75 -1882.46,-70.13zm4420.77 4917.18c862.47,-632.13 795.8,-905.16 1149.83,-1322.52 179.73,305.31 341.13,771.08 365.28,1185.56 -587.76,28.62 -866.27,249.92 -845.36,858.16 -346.93,-26.89 -970.5,-182.26 -1170.61,-374.93 148.23,-137.77 371.22,-251.26 500.86,-346.27zm-3975.78 -6446.97c-416.74,380.39 -613.28,222.53 -1349.81,1183.56 -115.67,150.93 -188.96,342.69 -320.44,471.92 -208.78,-258.88 -345.16,-794.62 -373.76,-1174.27 288.97,7.65 520.05,-52.41 660.67,-205.83 71.86,-78.43 105.56,-158.83 145.88,-282.41 21.96,-67.3 37.51,-137.72 58.38,-196.32 59.1,-166.08 19.77,-79.81 70.7,-161.57 461.31,71.56 755.35,191.59 1108.39,364.93zm-30.98 6230.26c504.57,-260.66 814.59,528.53 358.46,752.48 -504.41,247.67 -955.27,-444.16 -358.46,-752.48zm3943.91 -6253.24c499.54,847.63 -622.98,1064.36 -713.44,437.11 -43.1,-298.87 82.18,-321.76 225.13,-508.18l488.32 71.07zm-5672.48 181.09c-533.69,193.57 -875.02,-583.02 -262.68,-803.28 496.18,-178.48 750.52,626.31 262.68,803.28zm7327.72 7259.97c-451,229.46 -972.32,-436.63 -355.53,-750.89 513.48,-261.6 787.02,531.36 355.53,750.89z"/>
   <path class="fil0 str0" d="M3716.65 6058.9c279.16,0 696.27,65.17 931.38,-62.43l14.88 -199.61c-962.35,-252.81 -1550.08,262.04 -946.26,262.04z"/>
   <path class="fil0 str0" d="M1899.35 9005.13c28.85,-888.3 -722.93,-660.4 -834.75,-350.37 -101.53,281.5 148.46,979.21 834.75,350.37z"/>
   <path class="fil0 str0" d="M8498.05 2542.66c-113.59,297.93 63.2,414.49 202.41,575.39 821.76,109.23 765.2,-693.52 339.91,-826.62 -265.22,-83.01 -472.02,66.86 -542.31,251.22z"/>
  </g>
 </g>
</svg>
